<?xml version="1.0" encoding="utf-8"?>
<!-- Generator: Adobe Illustrator 16.0.0, SVG Export Plug-In . SVG Version: 6.00 Build 0)  -->
<!DOCTYPE svg PUBLIC "-//W3C//DTD SVG 1.1//EN" "http://www.w3.org/Graphics/SVG/1.1/DTD/svg11.dtd">
<svg version="1.1" id="图层_1" xmlns="http://www.w3.org/2000/svg" xmlns:xlink="http://www.w3.org/1999/xlink" x="0px" y="0px"
	 width="800px" height="800px" viewBox="0 0 800 800" enable-background="new 0 0 800 800" xml:space="preserve">
<path fill="#fff" d="M398.676,786.468c-212.276,0-384.98-172.703-384.98-384.988c0-212.276,172.704-384.972,384.98-384.972
	c212.275,0,384.979,172.696,384.979,384.972C783.655,613.765,610.951,786.468,398.676,786.468z M398.676,51.538
	c-192.965,0-349.95,156.985-349.95,349.941c0,192.974,156.985,349.96,349.95,349.96c192.965,0,349.951-156.986,349.951-349.96
	C748.627,208.523,591.641,51.538,398.676,51.538z"/>
<g>
	<path fill="#fff" d="M361.164,581.145c0-10.468,3.686-19.241,11.05-26.306c7.364-7.081,16.191-10.623,26.462-10.623
		c10.082,0,18.806,3.678,26.178,11.049c7.355,7.373,11.05,15.994,11.05,25.88c0,9.699-3.593,18.167-10.775,25.452
		c-7.167,7.253-15.497,10.896-24.999,10.896c-11.632,0-21.03-3.644-28.207-10.896C364.748,599.312,361.164,590.844,361.164,581.145z
		 M427.762,161.263l-6.697,322.182h-46.524l-6.397-322.182H427.762z"/>
</g>
</svg>
