<?xml version="1.0" encoding="utf-8"?>
<!-- Generator: Adobe Illustrator 16.0.0, SVG Export Plug-In . SVG Version: 6.00 Build 0)  -->
<!DOCTYPE svg PUBLIC "-//W3C//DTD SVG 1.1//EN" "http://www.w3.org/Graphics/SVG/1.1/DTD/svg11.dtd">
<svg version="1.1" id="图层_1" xmlns="http://www.w3.org/2000/svg" xmlns:xlink="http://www.w3.org/1999/xlink" x="0px" y="0px"
	 width="800px" height="800px" viewBox="0 0 800 800" enable-background="new 0 0 800 800" xml:space="preserve">
<path fill="#fff" d="M399.675,787.829c-213.93,0-387.979-174.05-387.979-387.99c0-213.928,174.05-387.97,387.979-387.97
	c213.931,0,387.98,174.042,387.98,387.97C787.655,613.779,613.605,787.829,399.675,787.829z M399.675,47.172
	c-194.469,0-352.676,158.208-352.676,352.667c0,194.479,158.207,352.688,352.676,352.688s352.678-158.209,352.678-352.688
	C752.353,205.381,594.144,47.172,399.675,47.172z"/>
<path fill="#fff" d="M245.466,641.72c-20.807,0-40.337-8.083-54.999-22.735c-30.269-30.286-30.278-79.604-0.017-109.925
	l21.263-21.255L391.47,332.078c-16.669-49.248-4.258-104.745,32.743-141.703c25.409-25.486,59.42-39.682,95.722-39.95
	c13.324,0,25.149,7.836,30.321,19.953c5.241,12.42,2.448,26.487-7.085,35.908l-39.044,39.068l60.022,60.014l39.078-39.146
	c9.43-9.309,23.771-12.076,35.768-7.024c12.291,5.188,20.152,17.126,20.031,30.416c-0.293,36.224-14.463,70.208-39.888,95.686
	c-25.908,25.884-60.349,40.121-97.016,40.121c-0.017,0-0.017,0-0.017,0c-15.101,0-30.321-2.533-44.681-7.377L322.51,596.816
	l-22.09,22.168C285.794,633.637,266.271,641.72,245.466,641.72z M513.54,185.988c-24.409,1.733-47.059,12.007-64.349,29.338
	c-29.855,29.821-38.148,75.89-20.652,114.667c3.225,7.111,1.381,15.488-4.532,20.599L235.752,513.627l-20.323,20.375
	c-16.514,16.547-16.522,43.491,0.008,60.023c15.945,15.944,44.069,15.978,59.997,0.017l21.246-21.271l162.233-187.263
	c5.121-5.905,13.515-7.739,20.599-4.534c13.273,5.991,28.012,9.155,42.596,9.155c27.253,0,52.833-10.575,72.054-29.779
	c17.29-17.325,27.564-40,29.305-64.427l-46.818,46.888c-3.311,3.318-7.809,5.179-12.497,5.179l0,0c-4.688,0-9.17-1.861-12.479-5.17
	l-84.967-84.991c-6.895-6.888-6.895-18.057,0-24.945L513.54,185.988z"/>
</svg>
