<?xml version="1.0" encoding="utf-8"?>
<!-- Generator: Adobe Illustrator 16.0.0, SVG Export Plug-In . SVG Version: 6.00 Build 0)  -->
<!DOCTYPE svg PUBLIC "-//W3C//DTD SVG 1.1//EN" "http://www.w3.org/Graphics/SVG/1.1/DTD/svg11.dtd">
<svg version="1.1" id="图层_1" xmlns="http://www.w3.org/2000/svg" xmlns:xlink="http://www.w3.org/1999/xlink" x="0px" y="0px"
	 width="800px" height="800px" viewBox="0 0 800 800" enable-background="new 0 0 800 800" xml:space="preserve">
<path fill="#fff" d="M398.203,787.173c-212.552,0-385.48-172.93-385.48-385.488c0-212.551,172.928-385.472,385.48-385.472
	c212.56,0,385.488,172.92,385.488,385.472C783.691,614.243,610.763,787.173,398.203,787.173z M398.203,51.289
	c-193.216,0-350.405,157.188-350.405,350.396c0,193.225,157.188,350.413,350.405,350.413c193.224,0,350.414-157.188,350.414-350.413
	C748.617,208.477,591.427,51.289,398.203,51.289z"/>
<path fill="#fff" d="M371.827,559.97L371.827,559.97c-4.649,0-9.111-1.85-12.399-5.138L178.005,373.39
	c-6.851-6.851-6.851-17.948,0-24.799c6.851-6.85,17.949-6.85,24.799,0l169.023,169.042l247.345-247.344
	c6.852-6.851,17.949-6.851,24.8,0s6.851,17.948,0,24.798L384.227,554.832C380.94,558.12,376.478,559.97,371.827,559.97z"/>
</svg>
